<svg width="64" height="64" viewBox="0 0 64 64" fill="none" xmlns="http://www.w3.org/2000/svg">
<g clip-path="url(#clip0_307_2)" filter="url(#filter0_d_307_2)">
<path d="M16.25 42.6562C13.8376 42.6562 11.875 40.6936 11.875 38.2812C11.875 35.8689 13.8376 33.9062 16.25 33.9062C18.6624 33.9062 20.625 35.8689 20.625 38.2812C20.625 40.6936 18.6624 42.6562 16.25 42.6562ZM16.25 35.6562C14.8027 35.6562 13.625 36.834 13.625 38.2812C13.625 39.7285 14.8027 40.9062 16.25 40.9062C17.6972 40.9062 18.875 39.7285 18.875 38.2812C18.875 36.834 17.6972 35.6562 16.25 35.6562Z" fill="#FF8A00"/>
<path d="M7.0625 6.125C5.37375 6.125 4 4.75125 4 3.0625C4 1.37375 5.37375 0 7.0625 0C8.75125 0 10.125 1.37462 10.125 3.0625C10.125 4.75037 8.75125 6.125 7.0625 6.125ZM7.0625 1.75C6.33888 1.75 5.75 2.33888 5.75 3.0625C5.75 3.78612 6.33888 4.375 7.0625 4.375C7.78612 4.375 8.375 3.787 8.375 3.0625C8.375 2.338 7.78612 1.75 7.0625 1.75Z" fill="#001AFF"/>
<path d="M17.125 14.2188C13.7484 14.2188 11 11.4712 11 8.09375C11 4.71625 13.7484 1.96875 17.125 1.96875C20.5016 1.96875 23.25 4.71625 23.25 8.09375C23.25 11.4712 20.5016 14.2188 17.125 14.2188ZM17.125 3.71875C14.7126 3.71875 12.75 5.68138 12.75 8.09375C12.75 10.5061 14.7126 12.4688 17.125 12.4688C19.5374 12.4688 21.5 10.5061 21.5 8.09375C21.5 5.68138 19.5374 3.71875 17.125 3.71875Z" fill="#001AFF"/>
<path d="M17.125 11.5938C16.6411 11.5938 16.25 11.2017 16.25 10.7188C16.25 10.2358 16.6411 9.84375 17.125 9.84375C18.0901 9.84375 18.875 9.05888 18.875 8.09375C18.875 7.12862 18.0901 6.34375 17.125 6.34375C16.6411 6.34375 16.25 5.95175 16.25 5.46875C16.25 4.98575 16.6411 4.59375 17.125 4.59375C19.0553 4.59375 20.625 6.1635 20.625 8.09375C20.625 10.024 19.0553 11.5938 17.125 11.5938Z" fill="#001AFF"/>
<path d="M9.25 19.9062C9.733 19.9062 10.125 20.2982 10.125 20.7812C10.125 21.2643 9.733 21.6562 9.25 21.6562C8.767 21.6562 8.375 21.2643 8.375 20.7812C8.375 20.2982 8.767 19.9062 9.25 19.9062ZM9.25 18.1562C7.80275 18.1562 6.625 19.334 6.625 20.7812C6.625 22.2285 7.80275 23.4062 9.25 23.4062C10.6972 23.4062 11.875 22.2285 11.875 20.7812C11.875 19.334 10.6972 18.1562 9.25 18.1562Z" fill="#001AFF"/>
<path d="M38.125 9.40625C38.608 9.40625 39 9.79825 39 10.2812C39 10.7643 38.608 11.1562 38.125 11.1562C37.642 11.1562 37.25 10.7643 37.25 10.2812C37.25 9.79825 37.642 9.40625 38.125 9.40625ZM38.125 7.65625C36.6777 7.65625 35.5 8.834 35.5 10.2812C35.5 11.7285 36.6777 12.9062 38.125 12.9062C39.5722 12.9062 40.75 11.7285 40.75 10.2812C40.75 8.834 39.5722 7.65625 38.125 7.65625Z" fill="#001AFF"/>
<path d="M47.75 42.6562C45.3376 42.6562 43.375 40.6936 43.375 38.2812C43.375 35.8689 45.3376 33.9062 47.75 33.9062C50.1624 33.9062 52.125 35.8689 52.125 38.2812C52.125 40.6936 50.1624 42.6562 47.75 42.6562ZM47.75 35.6562C46.3027 35.6562 45.125 36.834 45.125 38.2812C45.125 39.7285 46.3027 40.9062 47.75 40.9062C49.1972 40.9062 50.375 39.7285 50.375 38.2812C50.375 36.834 49.1972 35.6562 47.75 35.6562Z" fill="#FF8A00"/>
<path d="M53.2301 18.1816C49.4974 18.1816 46.4611 15.1445 46.4611 11.4117C46.4611 8.8961 49.2655 4.61386 51.6192 1.46473C52.0025 0.95198 52.5896 0.657104 53.231 0.657104C53.8724 0.657104 54.4604 0.951105 54.8436 1.46473C57.1956 4.61386 60 8.8961 60 11.4117C60 15.1445 56.9629 18.1816 53.2301 18.1816ZM53.2301 2.40623C53.1811 2.40623 53.0884 2.42023 53.0201 2.51123C50.0092 6.54236 48.2111 9.86911 48.2111 11.4109C48.2111 14.1794 50.4625 16.4307 53.2301 16.4307C55.9977 16.4307 58.25 14.1794 58.25 11.4117C58.25 9.86998 56.4519 6.54323 53.441 2.5121C53.3727 2.42023 53.2791 2.40623 53.2301 2.40623Z" fill="#FF8A00"/>
<path d="M14.8106 55.9991H10.6894C9.41363 55.9991 8.375 54.9614 8.375 53.6856V50.7491C8.375 50.2653 8.76613 49.8741 9.25 49.8741C9.73388 49.8741 10.125 50.2653 10.125 50.7491V53.6856C10.125 53.9954 10.3779 54.2491 10.6894 54.2491H14.8115C15.1221 54.2491 15.3759 53.9963 15.3759 53.6856V52.4991C15.3759 52.0153 15.767 51.6241 16.2509 51.6241C16.7348 51.6241 17.1259 52.0153 17.1259 52.4991V53.6856C17.125 54.9614 16.0864 55.9991 14.8106 55.9991Z" fill="#FF8A00"/>
<path d="M53.3106 55.9991H49.1885C47.9128 55.9991 46.8741 54.9614 46.8741 53.6856V52.4991C46.8741 52.0153 47.2653 51.6241 47.7491 51.6241C48.233 51.6241 48.6241 52.0153 48.6241 52.4991V53.6856C48.6241 53.9954 48.877 54.2491 49.1885 54.2491H53.3106C53.6213 54.2491 53.875 53.9963 53.875 53.6856V50.7491C53.875 50.2653 54.2661 49.8741 54.75 49.8741C55.2339 49.8741 55.625 50.2653 55.625 50.7491V53.6856C55.625 54.9614 54.5864 55.9991 53.3106 55.9991Z" fill="#FF8A00"/>
<path d="M49.6006 48.7812H14.3994C10.1119 48.7812 6.625 45.2944 6.625 41.0069C6.625 40.9544 6.62938 40.9036 6.639 40.852L8.04862 33.0146C8.32075 31.5026 9.63325 30.4062 11.1689 30.4062H52.8302C54.3667 30.4062 55.6793 31.5035 55.9505 33.0146L57.3601 40.852C57.3706 40.9036 57.375 40.9553 57.375 41.0069C57.375 45.2944 53.8881 48.7812 49.6006 48.7812ZM8.37587 41.0821C8.41612 44.3695 11.1024 47.0312 14.3994 47.0312H49.6006C52.8976 47.0312 55.5839 44.3695 55.6241 41.0821L54.2285 33.3244C54.1069 32.648 53.5189 32.1562 52.8302 32.1562H11.1689C10.4802 32.1562 9.89225 32.648 9.77062 33.3244L8.37587 41.0821Z" fill="#FF8A00"/>
<path d="M51.2509 27.7812C50.9201 27.7812 50.6043 27.5931 50.4564 27.2738C50.3934 27.1372 49.8981 26.2474 46.21 20.5555C45.237 19.0531 43.5868 18.1562 41.7948 18.1562H22.2446C20.436 18.1562 18.7761 19.068 17.8049 20.594L13.4885 27.3761C13.2295 27.783 12.6896 27.9037 12.2801 27.6447C11.8724 27.3849 11.7516 26.8441 12.0115 26.4364L16.3279 19.6542C17.622 17.6207 19.834 16.4062 22.2446 16.4062H41.7956C44.1835 16.4062 46.3824 17.6015 47.68 19.6035C51.7216 25.8414 51.9649 26.3664 52.0445 26.5387C52.2475 26.9771 52.0576 27.4969 51.6184 27.6999C51.4985 27.7559 51.3743 27.7812 51.2509 27.7812Z" fill="#FF8A00"/>
<path d="M59.125 27.7812H54.75C54.2661 27.7812 53.875 27.3901 53.875 26.9062C53.875 26.4224 54.2661 26.0312 54.75 26.0312H59.125C59.6089 26.0312 60 26.4224 60 26.9062C60 27.3901 59.6089 27.7812 59.125 27.7812Z" fill="#FF8A00"/>
<path d="M9.25 27.7812H4.875C4.39113 27.7812 4 27.3901 4 26.9062C4 26.4224 4.39113 26.0312 4.875 26.0312H9.25C9.73387 26.0312 10.125 26.4224 10.125 26.9062C10.125 27.3901 9.73387 27.7812 9.25 27.7812Z" fill="#FF8A00"/>
<path d="M39.875 39.1562H24.125C23.6411 39.1562 23.25 38.7651 23.25 38.2812C23.25 37.7974 23.6411 37.4062 24.125 37.4062H39.875C40.3589 37.4062 40.75 37.7974 40.75 38.2812C40.75 38.7651 40.3589 39.1562 39.875 39.1562Z" fill="#FF8A00"/>
<path d="M32 42.217C30.481 42.217 28.9611 42.0657 27.4535 41.7638C26.9801 41.6693 26.6721 41.2082 26.7675 40.7339C26.8611 40.2597 27.3249 39.949 27.7974 40.0479C30.5869 40.6053 33.4149 40.6053 36.2035 40.0479C36.6839 39.949 37.1389 40.2605 37.2334 40.7339C37.3279 41.2082 37.0208 41.6684 36.5474 41.7638C35.0389 42.0657 33.519 42.217 32 42.217Z" fill="#FF8A00"/>
<path d="M36.375 22.5312H27.625C27.1411 22.5312 26.75 22.1393 26.75 21.6562C26.75 21.1733 27.1411 20.7812 27.625 20.7812H36.375C36.8589 20.7812 37.25 21.1733 37.25 21.6562C37.25 22.1393 36.8589 22.5312 36.375 22.5312Z" fill="#FF8A00"/>
<path d="M30.25 13.7812H26.75C26.2661 13.7812 25.875 13.3893 25.875 12.9062C25.875 12.4233 26.2661 12.0312 26.75 12.0312H30.25C30.7339 12.0312 31.125 12.4233 31.125 12.9062C31.125 13.3893 30.7339 13.7812 30.25 13.7812Z" fill="#001AFF"/>
<path d="M28.5 15.5312C28.0161 15.5312 27.625 15.1392 27.625 14.6562V11.1562C27.625 10.6733 28.0161 10.2812 28.5 10.2812C28.9839 10.2812 29.375 10.6733 29.375 11.1562V14.6562C29.375 15.1392 28.9839 15.5312 28.5 15.5312Z" fill="#001AFF"/>
<path d="M45.125 26.9062H41.625C41.1411 26.9062 40.75 26.5151 40.75 26.0312C40.75 25.5483 41.1411 25.1562 41.625 25.1562H45.125C45.6089 25.1562 46 25.5483 46 26.0312C46 26.5151 45.6089 26.9062 45.125 26.9062Z" fill="#001AFF"/>
<path d="M43.375 28.6562C42.8911 28.6562 42.5 28.2651 42.5 27.7812V24.2812C42.5 23.7983 42.8911 23.4062 43.375 23.4062C43.8589 23.4062 44.25 23.7983 44.25 24.2812V27.7812C44.25 28.2651 43.8589 28.6562 43.375 28.6562Z" fill="#001AFF"/>
</g>
<defs>
<filter id="filter0_d_307_2" x="0" y="0" width="64" height="64" filterUnits="userSpaceOnUse" color-interpolation-filters="sRGB">
<feFlood flood-opacity="0" result="BackgroundImageFix"/>
<feColorMatrix in="SourceAlpha" type="matrix" values="0 0 0 0 0 0 0 0 0 0 0 0 0 0 0 0 0 0 127 0" result="hardAlpha"/>
<feOffset dy="4"/>
<feGaussianBlur stdDeviation="2"/>
<feComposite in2="hardAlpha" operator="out"/>
<feColorMatrix type="matrix" values="0 0 0 0 0 0 0 0 0 0 0 0 0 0 0 0 0 0 0.25 0"/>
<feBlend mode="normal" in2="BackgroundImageFix" result="effect1_dropShadow_307_2"/>
<feBlend mode="normal" in="SourceGraphic" in2="effect1_dropShadow_307_2" result="shape"/>
</filter>
<clipPath id="clip0_307_2">
<rect width="56" height="56" fill="white" transform="translate(4)"/>
</clipPath>
</defs>
</svg>
