<svg width="18" height="19" viewBox="0 0 18 19" fill="none" xmlns="http://www.w3.org/2000/svg">
<path d="M8.25046 8.00006H9.75046V11.7501H8.25046V8.00006ZM8.24971 12.5001H9.74971V14.0001H8.24971V12.5001Z" fill="#D6A505"/>
<path d="M10.3257 3.65002C10.0647 3.15877 9.55622 2.85352 8.99972 2.85352C8.44322 2.85352 7.93472 3.15877 7.67372 3.65077L2.17022 14.048C2.04809 14.2763 1.9876 14.5326 1.9947 14.7914C2.0018 15.0502 2.07626 15.3027 2.21072 15.524C2.34324 15.7463 2.53145 15.9302 2.75675 16.0575C2.98206 16.1848 3.23668 16.2512 3.49547 16.25H14.504C15.035 16.25 15.5157 15.9785 15.7895 15.524C15.9237 15.3027 15.998 15.0502 16.0051 14.7914C16.0122 14.5326 15.9519 14.2764 15.83 14.048L10.3257 3.65002ZM3.49547 14.75L8.99972 4.35277L14.5077 14.75H3.49547Z" fill="#D6A505"/>
</svg>
