<svg width="24" height="25" viewBox="0 0 24 25" fill="none" xmlns="http://www.w3.org/2000/svg">
<path fill-rule="evenodd" clip-rule="evenodd" d="M16 3.63135H8C5.23858 3.63135 3 5.86993 3 8.63135V16.6313C3 19.3927 5.23858 21.6313 8 21.6313H16C18.7614 21.6313 21 19.3927 21 16.6313V8.63135C21 5.86993 18.7614 3.63135 16 3.63135ZM19.25 16.6313C19.2445 18.4239 17.7926 19.8758 16 19.8813H8C6.20735 19.8758 4.75549 18.4239 4.75 16.6313V8.63135C4.75549 6.8387 6.20735 5.38684 8 5.38135H16C17.7926 5.38684 19.2445 6.8387 19.25 8.63135V16.6313ZM16.75 8.88135C17.3023 8.88135 17.75 8.43363 17.75 7.88135C17.75 7.32907 17.3023 6.88135 16.75 6.88135C16.1977 6.88135 15.75 7.32907 15.75 7.88135C15.75 8.43363 16.1977 8.88135 16.75 8.88135ZM12 8.13135C9.51472 8.13135 7.5 10.1461 7.5 12.6313C7.5 15.1166 9.51472 17.1313 12 17.1313C14.4853 17.1313 16.5 15.1166 16.5 12.6313C16.5027 11.437 16.0294 10.2909 15.1849 9.44643C14.3404 8.60194 13.1943 8.12869 12 8.13135ZM9.25 12.6313C9.25 14.1501 10.4812 15.3813 12 15.3813C13.5188 15.3813 14.75 14.1501 14.75 12.6313C14.75 11.1125 13.5188 9.88135 12 9.88135C10.4812 9.88135 9.25 11.1125 9.25 12.6313Z" fill="black"/>
</svg>
