<svg width="30" height="31" viewBox="0 0 30 31" fill="none" xmlns="http://www.w3.org/2000/svg">
<path d="M22.1334 15.866C22.0175 15.7498 21.8797 15.6577 21.7281 15.5948C21.5764 15.5319 21.4139 15.4995 21.2497 15.4995C21.0855 15.4995 20.923 15.5319 20.7713 15.5948C20.6197 15.6577 20.4819 15.7498 20.3659 15.866L18.3734 17.8585C17.4497 17.5835 15.7259 16.9585 14.6334 15.866C13.5409 14.7735 12.9159 13.0498 12.6409 12.126L14.6334 10.1335C14.7496 10.0175 14.8418 9.87977 14.9047 9.72813C14.9676 9.57649 14.9999 9.41393 14.9999 9.24976C14.9999 9.0856 14.9676 8.92304 14.9047 8.7714C14.8418 8.61975 14.7496 8.482 14.6334 8.36601L9.63343 3.36601C9.51745 3.24983 9.3797 3.15766 9.22805 3.09477C9.07641 3.03188 8.91385 2.99951 8.74968 2.99951C8.58552 2.99951 8.42296 3.03188 8.27132 3.09477C8.11967 3.15766 7.98192 3.24983 7.86594 3.36601L4.47593 6.75601C4.00094 7.23101 3.73343 7.88351 3.74343 8.54976C3.77218 10.3298 4.24344 16.5123 9.11594 21.3848C13.9884 26.2573 20.1709 26.7273 21.9522 26.7573H21.9872C22.6472 26.7573 23.2709 26.4973 23.7434 26.0248L27.1334 22.6348C27.2496 22.5188 27.3418 22.381 27.4047 22.2294C27.4676 22.0777 27.4999 21.9152 27.4999 21.751C27.4999 21.5868 27.4676 21.4243 27.4047 21.2726C27.3418 21.121 27.2496 20.9832 27.1334 20.8673L22.1334 15.866ZM21.9747 24.256C20.4147 24.2298 15.0772 23.811 10.8834 19.616C6.67593 15.4085 6.26843 10.0523 6.24343 8.52351L8.74968 6.01726L11.9822 9.24976L10.3659 10.866C10.219 11.0128 10.111 11.1939 10.0516 11.393C9.99226 11.592 9.98343 11.8027 10.0259 12.006C10.0559 12.1498 10.7897 15.5585 12.8647 17.6335C14.9397 19.7085 18.3484 20.4423 18.4922 20.4723C18.6954 20.516 18.9063 20.5078 19.1055 20.4486C19.3047 20.3894 19.4858 20.2811 19.6322 20.1335L21.2497 18.5173L24.4822 21.7498L21.9747 24.256Z" fill="#5B95FF"/>
</svg>
