<svg width="24" height="25" viewBox="0 0 24 25" fill="none" xmlns="http://www.w3.org/2000/svg">
<path d="M21.5933 7.59168C21.4794 7.16908 21.2568 6.78368 20.9477 6.47385C20.6386 6.16401 20.2537 5.94054 19.8313 5.82568C18.2653 5.39568 12.0003 5.38868 12.0003 5.38868C12.0003 5.38868 5.73633 5.38168 4.16933 5.79268C3.74725 5.91283 3.36315 6.13946 3.0539 6.45081C2.74464 6.76217 2.52062 7.1478 2.40333 7.57068C1.99033 9.13668 1.98633 12.3847 1.98633 12.3847C1.98633 12.3847 1.98233 15.6487 2.39233 17.1987C2.62233 18.0557 3.29733 18.7327 4.15533 18.9637C5.73733 19.3937 11.9853 19.4007 11.9853 19.4007C11.9853 19.4007 18.2503 19.4077 19.8163 18.9977C20.2388 18.883 20.6241 18.6601 20.934 18.3509C21.2439 18.0417 21.4677 17.6569 21.5833 17.2347C21.9973 15.6697 22.0003 12.4227 22.0003 12.4227C22.0003 12.4227 22.0203 9.15768 21.5933 7.59168ZM9.99633 15.3937L10.0013 9.39368L15.2083 12.3987L9.99633 15.3937Z" fill="black"/>
</svg>
